<svg width="192" height="140" viewBox="0 0 192 140" fill="none" xmlns="http://www.w3.org/2000/svg">
<circle cx="96.0003" cy="69.8182" r="69.8182" fill="#EAECF0"/>
<circle cx="22.6908" cy="17.4545" r="6.98182" fill="#F2F4F7"/>
<circle cx="172.8" cy="109.964" r="5.23636" fill="#F2F4F7"/>
<circle cx="21.8181" cy="120.436" r="8.72727" fill="#F2F4F7"/>
<circle cx="183.273" cy="40.1452" r="8.72727" fill="#F2F4F7"/>
<circle cx="166.691" cy="9.6003" r="6.10909" fill="#F2F4F7"/>
<g filter="url(#filter0_dd_87_10947)">
<path d="M99.042 13.9639C116.912 13.9639 132.256 24.7684 138.904 40.2002C140.061 40.0665 141.237 39.9961 142.429 39.9961C159.202 39.9961 172.8 53.5938 172.8 70.3672C172.8 87.1404 159.202 100.738 142.429 100.738H55.6553C36.4857 100.738 20.9454 85.1979 20.9453 66.0283C20.9453 46.8587 36.4857 31.3184 55.6553 31.3184C58.4073 31.3184 61.0842 31.6398 63.6514 32.2451C71.514 21.1814 84.4354 13.9639 99.042 13.9639Z" fill="#F9FAFB"/>
<circle cx="55.6549" cy="66.028" r="34.7096" fill="url(#paint0_linear_87_10947)"/>
<circle cx="99.0423" cy="57.3509" r="43.387" fill="url(#paint1_linear_87_10947)"/>
<circle cx="142.429" cy="70.367" r="30.3709" fill="url(#paint2_linear_87_10947)"/>
</g>
<foreignObject x="64.5817" y="66.3268" width="62.8362" height="62.8367"><div xmlns="http://www.w3.org/1999/xhtml" style="backdrop-filter:blur(3.49px);clip-path:url(#bgblur_0_87_10947_clip_path);height:100%;width:100%"></div></foreignObject><g data-figma-bg-blur-radius="6.98182">
<path d="M71.5635 97.745C71.5635 84.2491 82.504 73.3086 95.9998 73.3086C109.496 73.3086 120.436 84.2491 120.436 97.745C120.436 111.241 109.496 122.181 95.9998 122.181C82.504 122.181 71.5635 111.241 71.5635 97.745Z" fill="#344054" fill-opacity="0.4"/>
<path d="M102.031 102.617L106.314 106.899L104.899 108.314L100.617 104.031C99.0769 105.263 97.124 106 95 106C90.032 106 86 101.968 86 97C86 92.032 90.032 88 95 88C99.968 88 104 92.032 104 97C104 99.124 103.263 101.077 102.031 102.617ZM100.025 101.875C101.248 100.615 102 98.8956 102 97C102 93.1325 98.8675 90 95 90C91.1325 90 88 93.1325 88 97C88 100.868 91.1325 104 95 104C96.8956 104 98.6146 103.248 99.8748 102.025L100.025 101.875Z" fill="white"/>
</g>
<defs>
<filter id="filter0_dd_87_10947" x="3.49077" y="13.9639" width="186.764" height="121.684" filterUnits="userSpaceOnUse" color-interpolation-filters="sRGB">
<feFlood flood-opacity="0" result="BackgroundImageFix"/>
<feColorMatrix in="SourceAlpha" type="matrix" values="0 0 0 0 0 0 0 0 0 0 0 0 0 0 0 0 0 0 127 0" result="hardAlpha"/>
<feMorphology radius="3.49091" operator="erode" in="SourceAlpha" result="effect1_dropShadow_87_10947"/>
<feOffset dy="6.98182"/>
<feGaussianBlur stdDeviation="3.49091"/>
<feComposite in2="hardAlpha" operator="out"/>
<feColorMatrix type="matrix" values="0 0 0 0 0.0627451 0 0 0 0 0.0941176 0 0 0 0 0.156863 0 0 0 0.03 0"/>
<feBlend mode="normal" in2="BackgroundImageFix" result="effect1_dropShadow_87_10947"/>
<feColorMatrix in="SourceAlpha" type="matrix" values="0 0 0 0 0 0 0 0 0 0 0 0 0 0 0 0 0 0 127 0" result="hardAlpha"/>
<feMorphology radius="3.49091" operator="erode" in="SourceAlpha" result="effect2_dropShadow_87_10947"/>
<feOffset dy="17.4545"/>
<feGaussianBlur stdDeviation="10.4727"/>
<feComposite in2="hardAlpha" operator="out"/>
<feColorMatrix type="matrix" values="0 0 0 0 0.0627451 0 0 0 0 0.0941176 0 0 0 0 0.156863 0 0 0 0.08 0"/>
<feBlend mode="normal" in2="effect1_dropShadow_87_10947" result="effect2_dropShadow_87_10947"/>
<feBlend mode="normal" in="SourceGraphic" in2="effect2_dropShadow_87_10947" result="shape"/>
</filter>
<clipPath id="bgblur_0_87_10947_clip_path" transform="translate(-64.5817 -66.3268)"><path d="M71.5635 97.745C71.5635 84.2491 82.504 73.3086 95.9998 73.3086C109.496 73.3086 120.436 84.2491 120.436 97.745C120.436 111.241 109.496 122.181 95.9998 122.181C82.504 122.181 71.5635 111.241 71.5635 97.745Z"/>
</clipPath><linearGradient id="paint0_linear_87_10947" x1="29.0029" y1="43.0948" x2="90.3646" y2="100.738" gradientUnits="userSpaceOnUse">
<stop stop-color="#D0D5DD"/>
<stop offset="0.350715" stop-color="white" stop-opacity="0"/>
</linearGradient>
<linearGradient id="paint1_linear_87_10947" x1="65.7273" y1="28.6845" x2="142.429" y2="100.738" gradientUnits="userSpaceOnUse">
<stop stop-color="#D0D5DD"/>
<stop offset="0.350715" stop-color="white" stop-opacity="0"/>
</linearGradient>
<linearGradient id="paint2_linear_87_10947" x1="119.108" y1="50.3005" x2="172.8" y2="100.738" gradientUnits="userSpaceOnUse">
<stop stop-color="#D0D5DD"/>
<stop offset="0.350715" stop-color="white" stop-opacity="0"/>
</linearGradient>
</defs>
</svg>
