<svg width="17" height="18" viewBox="0 0 17 18" fill="none" xmlns="http://www.w3.org/2000/svg">
<g filter="url(#filter0_d_188_12264)">
<path d="M4.07847 12.2682C3.79847 11.9082 3.44847 11.1782 2.83847 10.2682C2.48847 9.76821 1.62847 8.81821 1.36847 8.32821C1.18104 8.03044 1.12665 7.66786 1.21847 7.32821C1.37543 6.68242 1.98803 6.25403 2.64847 6.32821C3.15927 6.43082 3.62869 6.68118 3.99847 7.04821C4.25665 7.29138 4.49413 7.55563 4.70847 7.83821C4.86847 8.03821 4.90847 8.11821 5.08847 8.34821C5.26847 8.57821 5.38847 8.80821 5.29847 8.46821C5.22847 7.96821 5.10847 7.12821 4.93847 6.37821C4.80847 5.80821 4.77847 5.71821 4.65847 5.28821C4.53847 4.85821 4.46847 4.49821 4.33847 4.00821C4.21963 3.52678 4.12617 3.03944 4.05847 2.54821C3.93242 1.91991 4.02412 1.26742 4.31847 0.698209C4.66786 0.369578 5.1804 0.282841 5.61847 0.478209C6.05906 0.803545 6.38757 1.25786 6.55847 1.77821C6.82053 2.4186 6.99543 3.09127 7.07847 3.77821C7.23847 4.77821 7.54847 6.23821 7.55847 6.53821C7.55847 6.16821 7.48847 5.38821 7.55847 5.03821C7.62782 4.67333 7.88142 4.37052 8.22847 4.23821C8.52628 4.14683 8.84131 4.12629 9.14847 4.17821C9.4585 4.24302 9.73313 4.42135 9.91847 4.67821C10.1501 5.2616 10.2787 5.88081 10.2985 6.50821C10.3252 5.9588 10.4193 5.41474 10.5785 4.88821C10.7456 4.65276 10.9896 4.483 11.2685 4.40821C11.5991 4.34776 11.9379 4.34776 12.2685 4.40821C12.5396 4.49884 12.7767 4.66972 12.9485 4.89821C13.1602 5.42855 13.2884 5.98855 13.3285 6.55821C13.3285 6.69821 13.3985 6.16821 13.6185 5.81821C13.7328 5.47881 14.0195 5.22618 14.3706 5.15548C14.7217 5.08479 15.0838 5.20678 15.3206 5.47548C15.5574 5.74419 15.6328 6.11881 15.5185 6.45821C15.5185 7.10821 15.5185 7.07821 15.5185 7.51821C15.5185 7.95821 15.5185 8.34821 15.5185 8.71821C15.482 9.30339 15.4018 9.88502 15.2785 10.4582C15.1044 10.9653 14.8622 11.4464 14.5585 11.8882C14.0729 12.4282 13.6717 13.0384 13.3685 13.6982C13.2932 14.026 13.2596 14.362 13.2685 14.6982C13.2675 15.0088 13.3078 15.3182 13.3885 15.6182C12.9796 15.6614 12.5673 15.6614 12.1585 15.6182C11.7685 15.5582 11.2885 14.7782 11.1585 14.5382C11.0941 14.4093 10.9625 14.3279 10.8185 14.3279C10.6744 14.3279 10.5428 14.4093 10.4785 14.5382C10.2585 14.9182 9.76847 15.6082 9.42847 15.6482C8.75847 15.7282 7.37847 15.6482 6.28847 15.6482C6.28847 15.6482 6.46847 14.6482 6.05847 14.2882C5.64847 13.9282 5.22847 13.5082 4.91847 13.2282L4.07847 12.2682Z" fill="white"/>
<path fill-rule="evenodd" clip-rule="evenodd" d="M4.07847 12.2682C3.79847 11.9082 3.44847 11.1782 2.83847 10.2682C2.48847 9.76821 1.62847 8.81821 1.36847 8.32821C1.18104 8.03044 1.12665 7.66786 1.21847 7.32821C1.37543 6.68242 1.98803 6.25403 2.64847 6.32821C3.15927 6.43082 3.62869 6.68118 3.99847 7.04821C4.25665 7.29138 4.49413 7.55563 4.70847 7.83821C4.86847 8.03821 4.90847 8.11821 5.08847 8.34821C5.26847 8.57821 5.38847 8.80821 5.29847 8.46821C5.22847 7.96821 5.10847 7.12821 4.93847 6.37821C4.80847 5.80821 4.77847 5.71821 4.65847 5.28821C4.53847 4.85821 4.46847 4.49821 4.33847 4.00821C4.21963 3.52678 4.12617 3.03944 4.05847 2.54821C3.93242 1.91991 4.02412 1.26742 4.31847 0.698209C4.66786 0.369578 5.1804 0.282841 5.61847 0.478209C6.05906 0.803545 6.38757 1.25786 6.55847 1.77821C6.82053 2.4186 6.99543 3.09127 7.07847 3.77821C7.23847 4.77821 7.54847 6.23821 7.55847 6.53821C7.55847 6.16821 7.48847 5.38821 7.55847 5.03821C7.62782 4.67333 7.88142 4.37052 8.22847 4.23821C8.52628 4.14683 8.84131 4.12629 9.14847 4.17821C9.4585 4.24302 9.73313 4.42135 9.91847 4.67821C10.1501 5.2616 10.2787 5.88081 10.2985 6.50821C10.3252 5.9588 10.4193 5.41474 10.5785 4.88821C10.7456 4.65276 10.9896 4.483 11.2685 4.40821C11.5991 4.34776 11.9379 4.34776 12.2685 4.40821C12.5396 4.49884 12.7767 4.66972 12.9485 4.89821C13.1602 5.42855 13.2884 5.98855 13.3285 6.55821C13.3285 6.69821 13.3985 6.16821 13.6185 5.81821C13.7328 5.47881 14.0195 5.22618 14.3706 5.15548C14.7217 5.08479 15.0838 5.20678 15.3206 5.47548C15.5574 5.74419 15.6328 6.11881 15.5185 6.45821C15.5185 7.10821 15.5185 7.07821 15.5185 7.51821C15.5185 7.95821 15.5185 8.34821 15.5185 8.71821C15.482 9.30339 15.4018 9.88502 15.2785 10.4582C15.1044 10.9653 14.8622 11.4464 14.5585 11.8882C14.0729 12.4282 13.6717 13.0384 13.3685 13.6982C13.2932 14.026 13.2596 14.362 13.2685 14.6982C13.2675 15.0088 13.3078 15.3182 13.3885 15.6182C12.9796 15.6614 12.5673 15.6614 12.1585 15.6182C11.7685 15.5582 11.2885 14.7782 11.1585 14.5382C11.0941 14.4093 10.9625 14.3279 10.8185 14.3279C10.6744 14.3279 10.5428 14.4093 10.4785 14.5382C10.2585 14.9182 9.76847 15.6082 9.42847 15.6482C8.75847 15.7282 7.37847 15.6482 6.28847 15.6482C6.28847 15.6482 6.46847 14.6482 6.05847 14.2882C5.64847 13.9282 5.22847 13.5082 4.91847 13.2282L4.07847 12.2682Z" fill="white" stroke="black" stroke-width="0.75" stroke-linecap="round" stroke-linejoin="round"/>
<path d="M12.5586 12.8142V9.36239C12.5586 9.15578 12.3907 8.98828 12.1836 8.98828C11.9765 8.98828 11.8086 9.15578 11.8086 9.36239V12.8142C11.8086 13.0208 11.9765 13.1883 12.1836 13.1883C12.3907 13.1883 12.5586 13.0208 12.5586 12.8142Z" fill="black"/>
<path d="M10.5786 12.8129L10.5586 9.35936C10.5574 9.15324 10.3885 8.98711 10.1814 8.98829C9.97434 8.98948 9.80741 9.15754 9.8086 9.36366L9.82861 12.8172C9.8298 13.0233 9.99866 13.1895 10.2058 13.1883C10.4129 13.1871 10.5798 13.019 10.5786 12.8129Z" fill="black"/>
<path d="M7.8086 9.36728L7.82861 12.8137C7.82981 13.0218 7.99868 13.1895 8.20579 13.1883C8.41289 13.1871 8.5798 13.0174 8.57859 12.8093L8.55859 9.36289C8.55739 9.15479 8.38852 8.98708 8.18141 8.98829C7.97431 8.98951 7.8074 9.15918 7.8086 9.36728Z" fill="black"/>
</g>
<defs>
<filter id="filter0_d_188_12264" x="-0.000195324" y="0" width="16.7465" height="17.8586" filterUnits="userSpaceOnUse" color-interpolation-filters="sRGB">
<feFlood flood-opacity="0" result="BackgroundImageFix"/>
<feColorMatrix in="SourceAlpha" type="matrix" values="0 0 0 0 0 0 0 0 0 0 0 0 0 0 0 0 0 0 127 0" result="hardAlpha"/>
<feOffset dy="1"/>
<feGaussianBlur stdDeviation="0.4"/>
<feColorMatrix type="matrix" values="0 0 0 0 0 0 0 0 0 0 0 0 0 0 0 0 0 0 0.5 0"/>
<feBlend mode="normal" in2="BackgroundImageFix" result="effect1_dropShadow_188_12264"/>
<feBlend mode="normal" in="SourceGraphic" in2="effect1_dropShadow_188_12264" result="shape"/>
</filter>
</defs>
</svg>
